<mxfile host="app.diagrams.net" modified="2023-12-04T22:48:45.834Z" agent="Mozilla/5.0 (Windows NT 10.0; Win64; x64) AppleWebKit/537.36 (KHTML, like Gecko) Chrome/119.0.0.0 Safari/537.36 Edg/119.0.0.0" etag="23KwroHEfO7e9-V-knR-" version="22.1.5" type="google">
  <diagram name="Page-1" id="yQ4pueWNBLwG0sALhrLb">
    <mxGraphModel dx="3733" dy="2081" grid="1" gridSize="10" guides="1" tooltips="1" connect="1" arrows="1" fold="1" page="1" pageScale="1" pageWidth="850" pageHeight="1100" math="0" shadow="0">
      <root>
        <mxCell id="0" />
        <mxCell id="1" parent="0" />
        <mxCell id="6i89CnMC8SLg-t6TyI8X-24" style="edgeStyle=orthogonalEdgeStyle;rounded=0;orthogonalLoop=1;jettySize=auto;html=1;" parent="1" source="6i89CnMC8SLg-t6TyI8X-2" target="6i89CnMC8SLg-t6TyI8X-3" edge="1">
          <mxGeometry relative="1" as="geometry" />
        </mxCell>
        <mxCell id="6i89CnMC8SLg-t6TyI8X-2" value="start" style="ellipse;whiteSpace=wrap;html=1;" parent="1" vertex="1">
          <mxGeometry x="-830" y="-10" width="120" height="80" as="geometry" />
        </mxCell>
        <mxCell id="6i89CnMC8SLg-t6TyI8X-23" style="edgeStyle=orthogonalEdgeStyle;rounded=0;orthogonalLoop=1;jettySize=auto;html=1;entryX=0.5;entryY=0;entryDx=0;entryDy=0;" parent="1" source="6i89CnMC8SLg-t6TyI8X-3" target="6i89CnMC8SLg-t6TyI8X-4" edge="1">
          <mxGeometry relative="1" as="geometry" />
        </mxCell>
        <mxCell id="6i89CnMC8SLg-t6TyI8X-3" value="I/O port configuration" style="rounded=0;whiteSpace=wrap;html=1;" parent="1" vertex="1">
          <mxGeometry x="-830" y="100" width="120" height="60" as="geometry" />
        </mxCell>
        <mxCell id="6i89CnMC8SLg-t6TyI8X-22" style="edgeStyle=orthogonalEdgeStyle;rounded=0;orthogonalLoop=1;jettySize=auto;html=1;entryX=0.5;entryY=0;entryDx=0;entryDy=0;" parent="1" source="6i89CnMC8SLg-t6TyI8X-4" target="6i89CnMC8SLg-t6TyI8X-5" edge="1">
          <mxGeometry relative="1" as="geometry" />
        </mxCell>
        <mxCell id="6i89CnMC8SLg-t6TyI8X-4" value="Timer configuration" style="rounded=0;whiteSpace=wrap;html=1;" parent="1" vertex="1">
          <mxGeometry x="-830" y="190" width="120" height="60" as="geometry" />
        </mxCell>
        <mxCell id="6i89CnMC8SLg-t6TyI8X-5" value="While(1)" style="rhombus;whiteSpace=wrap;html=1;" parent="1" vertex="1">
          <mxGeometry x="-825" y="270" width="110" height="80" as="geometry" />
        </mxCell>
        <mxCell id="6i89CnMC8SLg-t6TyI8X-17" style="edgeStyle=orthogonalEdgeStyle;rounded=0;orthogonalLoop=1;jettySize=auto;html=1;entryX=0.5;entryY=0;entryDx=0;entryDy=0;" parent="1" source="6i89CnMC8SLg-t6TyI8X-13" target="6i89CnMC8SLg-t6TyI8X-14" edge="1">
          <mxGeometry relative="1" as="geometry" />
        </mxCell>
        <mxCell id="6i89CnMC8SLg-t6TyI8X-13" value="start_up()" style="rounded=0;whiteSpace=wrap;html=1;" parent="1" vertex="1">
          <mxGeometry x="-825" y="370" width="120" height="60" as="geometry" />
        </mxCell>
        <mxCell id="6i89CnMC8SLg-t6TyI8X-18" style="edgeStyle=orthogonalEdgeStyle;rounded=0;orthogonalLoop=1;jettySize=auto;html=1;entryX=0.5;entryY=0;entryDx=0;entryDy=0;" parent="1" source="6i89CnMC8SLg-t6TyI8X-14" target="6i89CnMC8SLg-t6TyI8X-15" edge="1">
          <mxGeometry relative="1" as="geometry" />
        </mxCell>
        <mxCell id="6i89CnMC8SLg-t6TyI8X-14" value="gameplay()" style="rounded=0;whiteSpace=wrap;html=1;" parent="1" vertex="1">
          <mxGeometry x="-825" y="450" width="120" height="60" as="geometry" />
        </mxCell>
        <mxCell id="6i89CnMC8SLg-t6TyI8X-19" style="edgeStyle=orthogonalEdgeStyle;rounded=0;orthogonalLoop=1;jettySize=auto;html=1;" parent="1" source="6i89CnMC8SLg-t6TyI8X-15" edge="1">
          <mxGeometry relative="1" as="geometry">
            <mxPoint x="-910" y="570" as="targetPoint" />
          </mxGeometry>
        </mxCell>
        <mxCell id="6i89CnMC8SLg-t6TyI8X-15" value="game_over()" style="rounded=0;whiteSpace=wrap;html=1;" parent="1" vertex="1">
          <mxGeometry x="-825" y="540" width="120" height="60" as="geometry" />
        </mxCell>
        <mxCell id="6i89CnMC8SLg-t6TyI8X-16" style="edgeStyle=orthogonalEdgeStyle;rounded=0;orthogonalLoop=1;jettySize=auto;html=1;entryX=0.451;entryY=0.003;entryDx=0;entryDy=0;entryPerimeter=0;" parent="1" source="6i89CnMC8SLg-t6TyI8X-5" target="6i89CnMC8SLg-t6TyI8X-13" edge="1">
          <mxGeometry relative="1" as="geometry" />
        </mxCell>
        <mxCell id="6i89CnMC8SLg-t6TyI8X-20" value="" style="endArrow=classic;html=1;rounded=0;" parent="1" edge="1">
          <mxGeometry width="50" height="50" relative="1" as="geometry">
            <mxPoint x="-910" y="570" as="sourcePoint" />
            <mxPoint x="-910" y="310" as="targetPoint" />
          </mxGeometry>
        </mxCell>
        <mxCell id="6i89CnMC8SLg-t6TyI8X-21" value="" style="endArrow=classic;html=1;rounded=0;entryX=0;entryY=0.5;entryDx=0;entryDy=0;" parent="1" target="6i89CnMC8SLg-t6TyI8X-5" edge="1">
          <mxGeometry width="50" height="50" relative="1" as="geometry">
            <mxPoint x="-910" y="310" as="sourcePoint" />
            <mxPoint x="-1030" y="310" as="targetPoint" />
          </mxGeometry>
        </mxCell>
        <mxCell id="6i89CnMC8SLg-t6TyI8X-42" style="edgeStyle=orthogonalEdgeStyle;rounded=0;orthogonalLoop=1;jettySize=auto;html=1;" parent="1" source="6i89CnMC8SLg-t6TyI8X-25" target="6i89CnMC8SLg-t6TyI8X-26" edge="1">
          <mxGeometry relative="1" as="geometry" />
        </mxCell>
        <mxCell id="6i89CnMC8SLg-t6TyI8X-25" value="Timer1 Interrupt (configured to occur each second)" style="ellipse;whiteSpace=wrap;html=1;" parent="1" vertex="1">
          <mxGeometry x="220" y="460" width="120" height="80" as="geometry" />
        </mxCell>
        <mxCell id="6i89CnMC8SLg-t6TyI8X-41" style="edgeStyle=orthogonalEdgeStyle;rounded=0;orthogonalLoop=1;jettySize=auto;html=1;" parent="1" source="6i89CnMC8SLg-t6TyI8X-26" target="6i89CnMC8SLg-t6TyI8X-27" edge="1">
          <mxGeometry relative="1" as="geometry" />
        </mxCell>
        <mxCell id="6i89CnMC8SLg-t6TyI8X-26" value="Reset timer1" style="rounded=0;whiteSpace=wrap;html=1;" parent="1" vertex="1">
          <mxGeometry x="220" y="560" width="120" height="60" as="geometry" />
        </mxCell>
        <mxCell id="6i89CnMC8SLg-t6TyI8X-34" style="edgeStyle=orthogonalEdgeStyle;rounded=0;orthogonalLoop=1;jettySize=auto;html=1;" parent="1" source="6i89CnMC8SLg-t6TyI8X-27" edge="1">
          <mxGeometry relative="1" as="geometry">
            <mxPoint x="170" y="680" as="targetPoint" />
          </mxGeometry>
        </mxCell>
        <mxCell id="6i89CnMC8SLg-t6TyI8X-38" style="edgeStyle=orthogonalEdgeStyle;rounded=0;orthogonalLoop=1;jettySize=auto;html=1;" parent="1" source="6i89CnMC8SLg-t6TyI8X-27" target="6i89CnMC8SLg-t6TyI8X-29" edge="1">
          <mxGeometry relative="1" as="geometry" />
        </mxCell>
        <mxCell id="6i89CnMC8SLg-t6TyI8X-27" value="If state is game" style="rhombus;whiteSpace=wrap;html=1;" parent="1" vertex="1">
          <mxGeometry x="225" y="640" width="110" height="80" as="geometry" />
        </mxCell>
        <mxCell id="6i89CnMC8SLg-t6TyI8X-28" value="true" style="text;html=1;align=center;verticalAlign=middle;resizable=0;points=[];autosize=1;strokeColor=none;fillColor=none;" parent="1" vertex="1">
          <mxGeometry x="295" y="710" width="40" height="30" as="geometry" />
        </mxCell>
        <mxCell id="6i89CnMC8SLg-t6TyI8X-39" style="edgeStyle=orthogonalEdgeStyle;rounded=0;orthogonalLoop=1;jettySize=auto;html=1;" parent="1" source="6i89CnMC8SLg-t6TyI8X-29" target="6i89CnMC8SLg-t6TyI8X-30" edge="1">
          <mxGeometry relative="1" as="geometry" />
        </mxCell>
        <mxCell id="6i89CnMC8SLg-t6TyI8X-29" value="led = randomLED()" style="rounded=0;whiteSpace=wrap;html=1;" parent="1" vertex="1">
          <mxGeometry x="220" y="750" width="120" height="60" as="geometry" />
        </mxCell>
        <mxCell id="6i89CnMC8SLg-t6TyI8X-40" style="edgeStyle=orthogonalEdgeStyle;rounded=0;orthogonalLoop=1;jettySize=auto;html=1;" parent="1" source="6i89CnMC8SLg-t6TyI8X-30" target="6i89CnMC8SLg-t6TyI8X-31" edge="1">
          <mxGeometry relative="1" as="geometry" />
        </mxCell>
        <mxCell id="6i89CnMC8SLg-t6TyI8X-30" value="Turn on corresponding LED" style="rounded=0;whiteSpace=wrap;html=1;" parent="1" vertex="1">
          <mxGeometry x="220" y="840" width="120" height="60" as="geometry" />
        </mxCell>
        <mxCell id="6i89CnMC8SLg-t6TyI8X-37" style="edgeStyle=orthogonalEdgeStyle;rounded=0;orthogonalLoop=1;jettySize=auto;html=1;" parent="1" source="6i89CnMC8SLg-t6TyI8X-31" target="6i89CnMC8SLg-t6TyI8X-33" edge="1">
          <mxGeometry relative="1" as="geometry" />
        </mxCell>
        <mxCell id="6i89CnMC8SLg-t6TyI8X-31" value="Decrement seconds remaining" style="rounded=0;whiteSpace=wrap;html=1;" parent="1" vertex="1">
          <mxGeometry x="220" y="930" width="120" height="60" as="geometry" />
        </mxCell>
        <mxCell id="6i89CnMC8SLg-t6TyI8X-32" value="false" style="text;html=1;align=center;verticalAlign=middle;resizable=0;points=[];autosize=1;strokeColor=none;fillColor=none;" parent="1" vertex="1">
          <mxGeometry x="190" y="650" width="50" height="30" as="geometry" />
        </mxCell>
        <mxCell id="6i89CnMC8SLg-t6TyI8X-33" value="return" style="ellipse;whiteSpace=wrap;html=1;" parent="1" vertex="1">
          <mxGeometry x="220" y="1020" width="120" height="80" as="geometry" />
        </mxCell>
        <mxCell id="6i89CnMC8SLg-t6TyI8X-35" value="" style="endArrow=classic;html=1;rounded=0;" parent="1" edge="1">
          <mxGeometry width="50" height="50" relative="1" as="geometry">
            <mxPoint x="170" y="680" as="sourcePoint" />
            <mxPoint x="170" y="1060" as="targetPoint" />
          </mxGeometry>
        </mxCell>
        <mxCell id="6i89CnMC8SLg-t6TyI8X-36" value="" style="endArrow=classic;html=1;rounded=0;" parent="1" target="6i89CnMC8SLg-t6TyI8X-33" edge="1">
          <mxGeometry width="50" height="50" relative="1" as="geometry">
            <mxPoint x="170" y="1060" as="sourcePoint" />
            <mxPoint x="210" y="1060" as="targetPoint" />
          </mxGeometry>
        </mxCell>
        <mxCell id="ZLJRaEIaYoe57LLzMuyD-22" style="edgeStyle=orthogonalEdgeStyle;rounded=0;orthogonalLoop=1;jettySize=auto;html=1;" edge="1" parent="1" source="6i89CnMC8SLg-t6TyI8X-43" target="ZLJRaEIaYoe57LLzMuyD-3">
          <mxGeometry relative="1" as="geometry" />
        </mxCell>
        <mxCell id="6i89CnMC8SLg-t6TyI8X-43" value="randomLED" style="ellipse;whiteSpace=wrap;html=1;" parent="1" vertex="1">
          <mxGeometry x="-120" y="525" width="120" height="80" as="geometry" />
        </mxCell>
        <mxCell id="ZLJRaEIaYoe57LLzMuyD-21" style="edgeStyle=orthogonalEdgeStyle;rounded=0;orthogonalLoop=1;jettySize=auto;html=1;" edge="1" parent="1" source="ZLJRaEIaYoe57LLzMuyD-3" target="ZLJRaEIaYoe57LLzMuyD-6">
          <mxGeometry relative="1" as="geometry" />
        </mxCell>
        <mxCell id="ZLJRaEIaYoe57LLzMuyD-3" value="randomNum = current LED" style="rounded=0;whiteSpace=wrap;html=1;" vertex="1" parent="1">
          <mxGeometry x="-120" y="625" width="120" height="60" as="geometry" />
        </mxCell>
        <mxCell id="ZLJRaEIaYoe57LLzMuyD-4" value="randomNum = rand() % 6 (random number from 0-5)" style="rounded=0;whiteSpace=wrap;html=1;" vertex="1" parent="1">
          <mxGeometry x="-120" y="815" width="120" height="60" as="geometry" />
        </mxCell>
        <mxCell id="ZLJRaEIaYoe57LLzMuyD-13" style="edgeStyle=orthogonalEdgeStyle;rounded=0;orthogonalLoop=1;jettySize=auto;html=1;" edge="1" parent="1" source="ZLJRaEIaYoe57LLzMuyD-6">
          <mxGeometry relative="1" as="geometry">
            <mxPoint x="100" y="755" as="targetPoint" />
          </mxGeometry>
        </mxCell>
        <mxCell id="ZLJRaEIaYoe57LLzMuyD-6" value="while(randomNum == current LED)" style="rhombus;whiteSpace=wrap;html=1;" vertex="1" parent="1">
          <mxGeometry x="-150" y="710" width="180" height="90" as="geometry" />
        </mxCell>
        <mxCell id="ZLJRaEIaYoe57LLzMuyD-10" style="edgeStyle=orthogonalEdgeStyle;rounded=0;orthogonalLoop=1;jettySize=auto;html=1;" edge="1" parent="1" source="ZLJRaEIaYoe57LLzMuyD-7">
          <mxGeometry relative="1" as="geometry">
            <mxPoint x="-210" y="935" as="targetPoint" />
          </mxGeometry>
        </mxCell>
        <mxCell id="ZLJRaEIaYoe57LLzMuyD-7" value="if(randomNum &amp;gt;= 3) randomNum += 2)&lt;br&gt;(If 3, 4, or 5, add 2 - results in number corresponding to LED on top or bottom row of 3)" style="rounded=0;whiteSpace=wrap;html=1;" vertex="1" parent="1">
          <mxGeometry x="-170" y="895" width="220" height="80" as="geometry" />
        </mxCell>
        <mxCell id="ZLJRaEIaYoe57LLzMuyD-8" value="true" style="text;html=1;align=center;verticalAlign=middle;resizable=0;points=[];autosize=1;strokeColor=none;fillColor=none;" vertex="1" parent="1">
          <mxGeometry x="-35" y="785" width="40" height="30" as="geometry" />
        </mxCell>
        <mxCell id="ZLJRaEIaYoe57LLzMuyD-9" value="false" style="text;html=1;align=center;verticalAlign=middle;resizable=0;points=[];autosize=1;strokeColor=none;fillColor=none;" vertex="1" parent="1">
          <mxGeometry x="20" y="725" width="50" height="30" as="geometry" />
        </mxCell>
        <mxCell id="ZLJRaEIaYoe57LLzMuyD-11" value="" style="endArrow=classic;html=1;rounded=0;" edge="1" parent="1">
          <mxGeometry width="50" height="50" relative="1" as="geometry">
            <mxPoint x="-210" y="935" as="sourcePoint" />
            <mxPoint x="-210" y="755" as="targetPoint" />
          </mxGeometry>
        </mxCell>
        <mxCell id="ZLJRaEIaYoe57LLzMuyD-12" value="" style="endArrow=classic;html=1;rounded=0;entryX=0;entryY=0.5;entryDx=0;entryDy=0;" edge="1" parent="1" target="ZLJRaEIaYoe57LLzMuyD-6">
          <mxGeometry width="50" height="50" relative="1" as="geometry">
            <mxPoint x="-210" y="755" as="sourcePoint" />
            <mxPoint x="-280" y="795" as="targetPoint" />
          </mxGeometry>
        </mxCell>
        <mxCell id="ZLJRaEIaYoe57LLzMuyD-14" value="" style="endArrow=classic;html=1;rounded=0;" edge="1" parent="1">
          <mxGeometry width="50" height="50" relative="1" as="geometry">
            <mxPoint x="100" y="755" as="sourcePoint" />
            <mxPoint x="100" y="1035" as="targetPoint" />
          </mxGeometry>
        </mxCell>
        <mxCell id="ZLJRaEIaYoe57LLzMuyD-15" value="return randomNum" style="ellipse;whiteSpace=wrap;html=1;" vertex="1" parent="1">
          <mxGeometry x="-115" y="995" width="120" height="80" as="geometry" />
        </mxCell>
        <mxCell id="ZLJRaEIaYoe57LLzMuyD-16" value="" style="endArrow=classic;html=1;rounded=0;" edge="1" parent="1" target="ZLJRaEIaYoe57LLzMuyD-15">
          <mxGeometry width="50" height="50" relative="1" as="geometry">
            <mxPoint x="100" y="1035" as="sourcePoint" />
            <mxPoint x="-140" y="1075" as="targetPoint" />
          </mxGeometry>
        </mxCell>
        <mxCell id="ZLJRaEIaYoe57LLzMuyD-17" value="" style="endArrow=classic;html=1;rounded=0;" edge="1" parent="1" source="ZLJRaEIaYoe57LLzMuyD-6" target="ZLJRaEIaYoe57LLzMuyD-4">
          <mxGeometry width="50" height="50" relative="1" as="geometry">
            <mxPoint x="-410" y="945" as="sourcePoint" />
            <mxPoint x="-360" y="895" as="targetPoint" />
          </mxGeometry>
        </mxCell>
        <mxCell id="ZLJRaEIaYoe57LLzMuyD-20" value="" style="endArrow=classic;html=1;rounded=0;" edge="1" parent="1" source="ZLJRaEIaYoe57LLzMuyD-4" target="ZLJRaEIaYoe57LLzMuyD-7">
          <mxGeometry width="50" height="50" relative="1" as="geometry">
            <mxPoint x="-310" y="1025" as="sourcePoint" />
            <mxPoint x="-260" y="975" as="targetPoint" />
          </mxGeometry>
        </mxCell>
        <mxCell id="ZLJRaEIaYoe57LLzMuyD-23" value="true" style="text;html=1;align=center;verticalAlign=middle;resizable=0;points=[];autosize=1;strokeColor=none;fillColor=none;" vertex="1" parent="1">
          <mxGeometry x="-770" y="340" width="40" height="30" as="geometry" />
        </mxCell>
        <mxCell id="ZLJRaEIaYoe57LLzMuyD-58" style="edgeStyle=orthogonalEdgeStyle;rounded=0;orthogonalLoop=1;jettySize=auto;html=1;" edge="1" parent="1" source="ZLJRaEIaYoe57LLzMuyD-28" target="ZLJRaEIaYoe57LLzMuyD-29">
          <mxGeometry relative="1" as="geometry" />
        </mxCell>
        <mxCell id="ZLJRaEIaYoe57LLzMuyD-28" value="start_up" style="ellipse;whiteSpace=wrap;html=1;" vertex="1" parent="1">
          <mxGeometry x="-660" y="-10" width="120" height="80" as="geometry" />
        </mxCell>
        <mxCell id="ZLJRaEIaYoe57LLzMuyD-57" style="edgeStyle=orthogonalEdgeStyle;rounded=0;orthogonalLoop=1;jettySize=auto;html=1;" edge="1" parent="1" source="ZLJRaEIaYoe57LLzMuyD-29" target="ZLJRaEIaYoe57LLzMuyD-32">
          <mxGeometry relative="1" as="geometry" />
        </mxCell>
        <mxCell id="ZLJRaEIaYoe57LLzMuyD-29" value="Set state to startup" style="rounded=0;whiteSpace=wrap;html=1;" vertex="1" parent="1">
          <mxGeometry x="-660" y="100" width="120" height="60" as="geometry" />
        </mxCell>
        <mxCell id="ZLJRaEIaYoe57LLzMuyD-56" style="edgeStyle=orthogonalEdgeStyle;rounded=0;orthogonalLoop=1;jettySize=auto;html=1;" edge="1" parent="1" source="ZLJRaEIaYoe57LLzMuyD-32" target="ZLJRaEIaYoe57LLzMuyD-33">
          <mxGeometry relative="1" as="geometry" />
        </mxCell>
        <mxCell id="ZLJRaEIaYoe57LLzMuyD-32" value="While state is startup" style="rhombus;whiteSpace=wrap;html=1;" vertex="1" parent="1">
          <mxGeometry x="-655" y="180" width="110" height="80" as="geometry" />
        </mxCell>
        <mxCell id="ZLJRaEIaYoe57LLzMuyD-55" style="edgeStyle=orthogonalEdgeStyle;rounded=0;orthogonalLoop=1;jettySize=auto;html=1;" edge="1" parent="1" source="ZLJRaEIaYoe57LLzMuyD-33" target="ZLJRaEIaYoe57LLzMuyD-34">
          <mxGeometry relative="1" as="geometry" />
        </mxCell>
        <mxCell id="ZLJRaEIaYoe57LLzMuyD-33" value="Increment random seed" style="rounded=0;whiteSpace=wrap;html=1;" vertex="1" parent="1">
          <mxGeometry x="-660" y="280" width="120" height="60" as="geometry" />
        </mxCell>
        <mxCell id="ZLJRaEIaYoe57LLzMuyD-37" style="edgeStyle=orthogonalEdgeStyle;rounded=0;orthogonalLoop=1;jettySize=auto;html=1;" edge="1" parent="1" source="ZLJRaEIaYoe57LLzMuyD-34">
          <mxGeometry relative="1" as="geometry">
            <mxPoint x="-480" y="390" as="targetPoint" />
          </mxGeometry>
        </mxCell>
        <mxCell id="ZLJRaEIaYoe57LLzMuyD-54" style="edgeStyle=orthogonalEdgeStyle;rounded=0;orthogonalLoop=1;jettySize=auto;html=1;" edge="1" parent="1" source="ZLJRaEIaYoe57LLzMuyD-34" target="ZLJRaEIaYoe57LLzMuyD-41">
          <mxGeometry relative="1" as="geometry" />
        </mxCell>
        <mxCell id="ZLJRaEIaYoe57LLzMuyD-34" value="If SW1 pressed" style="rhombus;whiteSpace=wrap;html=1;" vertex="1" parent="1">
          <mxGeometry x="-655" y="350" width="110" height="80" as="geometry" />
        </mxCell>
        <mxCell id="ZLJRaEIaYoe57LLzMuyD-36" value="false" style="text;html=1;align=center;verticalAlign=middle;resizable=0;points=[];autosize=1;strokeColor=none;fillColor=none;" vertex="1" parent="1">
          <mxGeometry x="-560" y="370" width="50" height="30" as="geometry" />
        </mxCell>
        <mxCell id="ZLJRaEIaYoe57LLzMuyD-38" value="" style="endArrow=classic;html=1;rounded=0;" edge="1" parent="1">
          <mxGeometry width="50" height="50" relative="1" as="geometry">
            <mxPoint x="-480" y="390" as="sourcePoint" />
            <mxPoint x="-480" y="220" as="targetPoint" />
          </mxGeometry>
        </mxCell>
        <mxCell id="ZLJRaEIaYoe57LLzMuyD-39" value="" style="endArrow=classic;html=1;rounded=0;" edge="1" parent="1" target="ZLJRaEIaYoe57LLzMuyD-32">
          <mxGeometry width="50" height="50" relative="1" as="geometry">
            <mxPoint x="-480" y="220" as="sourcePoint" />
            <mxPoint x="-360" y="110" as="targetPoint" />
          </mxGeometry>
        </mxCell>
        <mxCell id="ZLJRaEIaYoe57LLzMuyD-53" style="edgeStyle=orthogonalEdgeStyle;rounded=0;orthogonalLoop=1;jettySize=auto;html=1;" edge="1" parent="1" source="ZLJRaEIaYoe57LLzMuyD-41" target="ZLJRaEIaYoe57LLzMuyD-42">
          <mxGeometry relative="1" as="geometry" />
        </mxCell>
        <mxCell id="ZLJRaEIaYoe57LLzMuyD-41" value="Wait for SW1 to be released" style="rounded=0;whiteSpace=wrap;html=1;" vertex="1" parent="1">
          <mxGeometry x="-660" y="450" width="120" height="60" as="geometry" />
        </mxCell>
        <mxCell id="ZLJRaEIaYoe57LLzMuyD-52" style="edgeStyle=orthogonalEdgeStyle;rounded=0;orthogonalLoop=1;jettySize=auto;html=1;" edge="1" parent="1" source="ZLJRaEIaYoe57LLzMuyD-42" target="ZLJRaEIaYoe57LLzMuyD-43">
          <mxGeometry relative="1" as="geometry" />
        </mxCell>
        <mxCell id="ZLJRaEIaYoe57LLzMuyD-42" value="Initialize random with seed" style="rounded=0;whiteSpace=wrap;html=1;" vertex="1" parent="1">
          <mxGeometry x="-660" y="540" width="120" height="60" as="geometry" />
        </mxCell>
        <mxCell id="ZLJRaEIaYoe57LLzMuyD-51" style="edgeStyle=orthogonalEdgeStyle;rounded=0;orthogonalLoop=1;jettySize=auto;html=1;" edge="1" parent="1" source="ZLJRaEIaYoe57LLzMuyD-43" target="ZLJRaEIaYoe57LLzMuyD-44">
          <mxGeometry relative="1" as="geometry" />
        </mxCell>
        <mxCell id="ZLJRaEIaYoe57LLzMuyD-43" value="Set state to game" style="rounded=0;whiteSpace=wrap;html=1;" vertex="1" parent="1">
          <mxGeometry x="-660" y="630" width="120" height="60" as="geometry" />
        </mxCell>
        <mxCell id="ZLJRaEIaYoe57LLzMuyD-48" style="edgeStyle=orthogonalEdgeStyle;rounded=0;orthogonalLoop=1;jettySize=auto;html=1;" edge="1" parent="1" source="ZLJRaEIaYoe57LLzMuyD-44" target="ZLJRaEIaYoe57LLzMuyD-45">
          <mxGeometry relative="1" as="geometry" />
        </mxCell>
        <mxCell id="ZLJRaEIaYoe57LLzMuyD-44" value="Set seconds remaining to 30" style="rounded=0;whiteSpace=wrap;html=1;" vertex="1" parent="1">
          <mxGeometry x="-660" y="720" width="120" height="60" as="geometry" />
        </mxCell>
        <mxCell id="ZLJRaEIaYoe57LLzMuyD-47" style="edgeStyle=orthogonalEdgeStyle;rounded=0;orthogonalLoop=1;jettySize=auto;html=1;" edge="1" parent="1" source="ZLJRaEIaYoe57LLzMuyD-45" target="ZLJRaEIaYoe57LLzMuyD-46">
          <mxGeometry relative="1" as="geometry" />
        </mxCell>
        <mxCell id="ZLJRaEIaYoe57LLzMuyD-45" value="Reset LED&#39;s" style="rounded=0;whiteSpace=wrap;html=1;" vertex="1" parent="1">
          <mxGeometry x="-660" y="800" width="120" height="60" as="geometry" />
        </mxCell>
        <mxCell id="ZLJRaEIaYoe57LLzMuyD-46" value="return" style="ellipse;whiteSpace=wrap;html=1;" vertex="1" parent="1">
          <mxGeometry x="-660" y="880" width="120" height="80" as="geometry" />
        </mxCell>
        <mxCell id="ZLJRaEIaYoe57LLzMuyD-84" style="edgeStyle=orthogonalEdgeStyle;rounded=0;orthogonalLoop=1;jettySize=auto;html=1;" edge="1" parent="1" source="ZLJRaEIaYoe57LLzMuyD-60" target="ZLJRaEIaYoe57LLzMuyD-64">
          <mxGeometry relative="1" as="geometry" />
        </mxCell>
        <mxCell id="ZLJRaEIaYoe57LLzMuyD-60" value="gameplay" style="ellipse;whiteSpace=wrap;html=1;" vertex="1" parent="1">
          <mxGeometry x="-410" y="-10" width="120" height="80" as="geometry" />
        </mxCell>
        <mxCell id="ZLJRaEIaYoe57LLzMuyD-63" style="edgeStyle=orthogonalEdgeStyle;rounded=0;orthogonalLoop=1;jettySize=auto;html=1;" edge="1" parent="1" source="ZLJRaEIaYoe57LLzMuyD-64">
          <mxGeometry relative="1" as="geometry">
            <mxPoint x="-349.97142857142853" y="200" as="targetPoint" />
          </mxGeometry>
        </mxCell>
        <mxCell id="ZLJRaEIaYoe57LLzMuyD-122" style="edgeStyle=orthogonalEdgeStyle;rounded=0;orthogonalLoop=1;jettySize=auto;html=1;" edge="1" parent="1" source="ZLJRaEIaYoe57LLzMuyD-64" target="ZLJRaEIaYoe57LLzMuyD-120">
          <mxGeometry relative="1" as="geometry" />
        </mxCell>
        <mxCell id="ZLJRaEIaYoe57LLzMuyD-64" value="While state is game" style="rhombus;whiteSpace=wrap;html=1;" vertex="1" parent="1">
          <mxGeometry x="-405" y="100" width="110" height="80" as="geometry" />
        </mxCell>
        <mxCell id="ZLJRaEIaYoe57LLzMuyD-92" style="edgeStyle=orthogonalEdgeStyle;rounded=0;orthogonalLoop=1;jettySize=auto;html=1;" edge="1" parent="1" source="ZLJRaEIaYoe57LLzMuyD-87" target="ZLJRaEIaYoe57LLzMuyD-88">
          <mxGeometry relative="1" as="geometry" />
        </mxCell>
        <mxCell id="ZLJRaEIaYoe57LLzMuyD-97" style="edgeStyle=orthogonalEdgeStyle;rounded=0;orthogonalLoop=1;jettySize=auto;html=1;" edge="1" parent="1" source="ZLJRaEIaYoe57LLzMuyD-87" target="ZLJRaEIaYoe57LLzMuyD-96">
          <mxGeometry relative="1" as="geometry" />
        </mxCell>
        <mxCell id="ZLJRaEIaYoe57LLzMuyD-87" value="If the button matching the current LED is pressed" style="rhombus;whiteSpace=wrap;html=1;" vertex="1" parent="1">
          <mxGeometry x="-432.5" y="200" width="165" height="100" as="geometry" />
        </mxCell>
        <mxCell id="ZLJRaEIaYoe57LLzMuyD-93" style="edgeStyle=orthogonalEdgeStyle;rounded=0;orthogonalLoop=1;jettySize=auto;html=1;" edge="1" parent="1" source="ZLJRaEIaYoe57LLzMuyD-88" target="ZLJRaEIaYoe57LLzMuyD-89">
          <mxGeometry relative="1" as="geometry" />
        </mxCell>
        <mxCell id="ZLJRaEIaYoe57LLzMuyD-88" value="Wait for that button to be released" style="rounded=0;whiteSpace=wrap;html=1;" vertex="1" parent="1">
          <mxGeometry x="-240" y="220" width="120" height="60" as="geometry" />
        </mxCell>
        <mxCell id="ZLJRaEIaYoe57LLzMuyD-94" style="edgeStyle=orthogonalEdgeStyle;rounded=0;orthogonalLoop=1;jettySize=auto;html=1;" edge="1" parent="1" source="ZLJRaEIaYoe57LLzMuyD-89" target="ZLJRaEIaYoe57LLzMuyD-91">
          <mxGeometry relative="1" as="geometry" />
        </mxCell>
        <mxCell id="ZLJRaEIaYoe57LLzMuyD-89" value="Increment score" style="rounded=0;whiteSpace=wrap;html=1;" vertex="1" parent="1">
          <mxGeometry x="-90" y="220" width="120" height="60" as="geometry" />
        </mxCell>
        <mxCell id="ZLJRaEIaYoe57LLzMuyD-114" style="edgeStyle=orthogonalEdgeStyle;rounded=0;orthogonalLoop=1;jettySize=auto;html=1;" edge="1" parent="1" source="ZLJRaEIaYoe57LLzMuyD-90">
          <mxGeometry relative="1" as="geometry">
            <mxPoint x="270" y="300" as="targetPoint" />
          </mxGeometry>
        </mxCell>
        <mxCell id="ZLJRaEIaYoe57LLzMuyD-90" value="Play score sound" style="rounded=0;whiteSpace=wrap;html=1;" vertex="1" parent="1">
          <mxGeometry x="210" y="220" width="120" height="60" as="geometry" />
        </mxCell>
        <mxCell id="ZLJRaEIaYoe57LLzMuyD-95" style="edgeStyle=orthogonalEdgeStyle;rounded=0;orthogonalLoop=1;jettySize=auto;html=1;" edge="1" parent="1" source="ZLJRaEIaYoe57LLzMuyD-91" target="ZLJRaEIaYoe57LLzMuyD-90">
          <mxGeometry relative="1" as="geometry" />
        </mxCell>
        <mxCell id="ZLJRaEIaYoe57LLzMuyD-91" value="Turn off LED&#39;s and set current LED to -1 (disabled)" style="rounded=0;whiteSpace=wrap;html=1;" vertex="1" parent="1">
          <mxGeometry x="60" y="220" width="120" height="60" as="geometry" />
        </mxCell>
        <mxCell id="ZLJRaEIaYoe57LLzMuyD-99" style="edgeStyle=orthogonalEdgeStyle;rounded=0;orthogonalLoop=1;jettySize=auto;html=1;" edge="1" parent="1" source="ZLJRaEIaYoe57LLzMuyD-96" target="ZLJRaEIaYoe57LLzMuyD-98">
          <mxGeometry relative="1" as="geometry" />
        </mxCell>
        <mxCell id="ZLJRaEIaYoe57LLzMuyD-106" style="edgeStyle=orthogonalEdgeStyle;rounded=0;orthogonalLoop=1;jettySize=auto;html=1;" edge="1" parent="1" source="ZLJRaEIaYoe57LLzMuyD-96">
          <mxGeometry relative="1" as="geometry">
            <mxPoint x="-350" y="470" as="targetPoint" />
          </mxGeometry>
        </mxCell>
        <mxCell id="ZLJRaEIaYoe57LLzMuyD-96" value="If seconds remaining is 0" style="rhombus;whiteSpace=wrap;html=1;" vertex="1" parent="1">
          <mxGeometry x="-432.5" y="320" width="165" height="100" as="geometry" />
        </mxCell>
        <mxCell id="ZLJRaEIaYoe57LLzMuyD-101" style="edgeStyle=orthogonalEdgeStyle;rounded=0;orthogonalLoop=1;jettySize=auto;html=1;" edge="1" parent="1" source="ZLJRaEIaYoe57LLzMuyD-98" target="ZLJRaEIaYoe57LLzMuyD-100">
          <mxGeometry relative="1" as="geometry" />
        </mxCell>
        <mxCell id="ZLJRaEIaYoe57LLzMuyD-98" value="Turn off LED&#39;s" style="rounded=0;whiteSpace=wrap;html=1;" vertex="1" parent="1">
          <mxGeometry x="-240" y="340" width="120" height="60" as="geometry" />
        </mxCell>
        <mxCell id="ZLJRaEIaYoe57LLzMuyD-103" style="edgeStyle=orthogonalEdgeStyle;rounded=0;orthogonalLoop=1;jettySize=auto;html=1;" edge="1" parent="1" source="ZLJRaEIaYoe57LLzMuyD-100" target="ZLJRaEIaYoe57LLzMuyD-102">
          <mxGeometry relative="1" as="geometry" />
        </mxCell>
        <mxCell id="ZLJRaEIaYoe57LLzMuyD-100" value="Set state to gameover" style="rounded=0;whiteSpace=wrap;html=1;" vertex="1" parent="1">
          <mxGeometry x="-90" y="340" width="120" height="60" as="geometry" />
        </mxCell>
        <mxCell id="ZLJRaEIaYoe57LLzMuyD-116" style="edgeStyle=orthogonalEdgeStyle;rounded=0;orthogonalLoop=1;jettySize=auto;html=1;" edge="1" parent="1" source="ZLJRaEIaYoe57LLzMuyD-102">
          <mxGeometry relative="1" as="geometry">
            <mxPoint x="120" y="440" as="targetPoint" />
          </mxGeometry>
        </mxCell>
        <mxCell id="ZLJRaEIaYoe57LLzMuyD-102" value="Play game over sound" style="rounded=0;whiteSpace=wrap;html=1;" vertex="1" parent="1">
          <mxGeometry x="60" y="340" width="120" height="60" as="geometry" />
        </mxCell>
        <mxCell id="ZLJRaEIaYoe57LLzMuyD-104" value="false" style="text;html=1;align=center;verticalAlign=middle;resizable=0;points=[];autosize=1;strokeColor=none;fillColor=none;" vertex="1" parent="1">
          <mxGeometry x="-350" y="295" width="50" height="30" as="geometry" />
        </mxCell>
        <mxCell id="ZLJRaEIaYoe57LLzMuyD-105" value="false" style="text;html=1;align=center;verticalAlign=middle;resizable=0;points=[];autosize=1;strokeColor=none;fillColor=none;" vertex="1" parent="1">
          <mxGeometry x="-340" y="410" width="50" height="30" as="geometry" />
        </mxCell>
        <mxCell id="ZLJRaEIaYoe57LLzMuyD-107" value="" style="endArrow=classic;html=1;rounded=0;" edge="1" parent="1">
          <mxGeometry width="50" height="50" relative="1" as="geometry">
            <mxPoint x="-350" y="470" as="sourcePoint" />
            <mxPoint x="-460" y="470" as="targetPoint" />
          </mxGeometry>
        </mxCell>
        <mxCell id="ZLJRaEIaYoe57LLzMuyD-108" value="" style="endArrow=classic;html=1;rounded=0;" edge="1" parent="1">
          <mxGeometry width="50" height="50" relative="1" as="geometry">
            <mxPoint x="-460" y="470" as="sourcePoint" />
            <mxPoint x="-460" y="140" as="targetPoint" />
          </mxGeometry>
        </mxCell>
        <mxCell id="ZLJRaEIaYoe57LLzMuyD-109" value="" style="endArrow=classic;html=1;rounded=0;" edge="1" parent="1" target="ZLJRaEIaYoe57LLzMuyD-64">
          <mxGeometry width="50" height="50" relative="1" as="geometry">
            <mxPoint x="-460" y="140" as="sourcePoint" />
            <mxPoint x="-520" y="80" as="targetPoint" />
          </mxGeometry>
        </mxCell>
        <mxCell id="ZLJRaEIaYoe57LLzMuyD-111" value="true" style="text;html=1;align=center;verticalAlign=middle;resizable=0;points=[];autosize=1;strokeColor=none;fillColor=none;" vertex="1" parent="1">
          <mxGeometry x="-600" y="420" width="40" height="30" as="geometry" />
        </mxCell>
        <mxCell id="ZLJRaEIaYoe57LLzMuyD-112" value="true" style="text;html=1;align=center;verticalAlign=middle;resizable=0;points=[];autosize=1;strokeColor=none;fillColor=none;" vertex="1" parent="1">
          <mxGeometry x="-290" y="340" width="40" height="30" as="geometry" />
        </mxCell>
        <mxCell id="ZLJRaEIaYoe57LLzMuyD-113" value="true" style="text;html=1;align=center;verticalAlign=middle;resizable=0;points=[];autosize=1;strokeColor=none;fillColor=none;" vertex="1" parent="1">
          <mxGeometry x="-280" y="220" width="40" height="30" as="geometry" />
        </mxCell>
        <mxCell id="ZLJRaEIaYoe57LLzMuyD-115" value="" style="endArrow=classic;html=1;rounded=0;entryX=0.5;entryY=1;entryDx=0;entryDy=0;" edge="1" parent="1" target="ZLJRaEIaYoe57LLzMuyD-87">
          <mxGeometry width="50" height="50" relative="1" as="geometry">
            <mxPoint x="270" y="300" as="sourcePoint" />
            <mxPoint x="310" y="370" as="targetPoint" />
          </mxGeometry>
        </mxCell>
        <mxCell id="ZLJRaEIaYoe57LLzMuyD-117" value="" style="endArrow=classic;html=1;rounded=0;" edge="1" parent="1">
          <mxGeometry width="50" height="50" relative="1" as="geometry">
            <mxPoint x="120" y="440" as="sourcePoint" />
            <mxPoint x="-350" y="440" as="targetPoint" />
          </mxGeometry>
        </mxCell>
        <mxCell id="ZLJRaEIaYoe57LLzMuyD-118" value="true" style="text;html=1;align=center;verticalAlign=middle;resizable=0;points=[];autosize=1;strokeColor=none;fillColor=none;" vertex="1" parent="1">
          <mxGeometry x="-390" y="170" width="40" height="30" as="geometry" />
        </mxCell>
        <mxCell id="ZLJRaEIaYoe57LLzMuyD-119" value="false" style="text;html=1;align=center;verticalAlign=middle;resizable=0;points=[];autosize=1;strokeColor=none;fillColor=none;" vertex="1" parent="1">
          <mxGeometry x="-317.5" y="115" width="50" height="30" as="geometry" />
        </mxCell>
        <mxCell id="ZLJRaEIaYoe57LLzMuyD-120" value="return" style="ellipse;whiteSpace=wrap;html=1;" vertex="1" parent="1">
          <mxGeometry x="-267.5" y="100" width="120" height="80" as="geometry" />
        </mxCell>
        <mxCell id="ZLJRaEIaYoe57LLzMuyD-127" style="edgeStyle=orthogonalEdgeStyle;rounded=0;orthogonalLoop=1;jettySize=auto;html=1;" edge="1" parent="1" source="ZLJRaEIaYoe57LLzMuyD-123" target="ZLJRaEIaYoe57LLzMuyD-124">
          <mxGeometry relative="1" as="geometry" />
        </mxCell>
        <mxCell id="ZLJRaEIaYoe57LLzMuyD-123" value="game_over" style="ellipse;whiteSpace=wrap;html=1;" vertex="1" parent="1">
          <mxGeometry x="-410" y="520" width="120" height="80" as="geometry" />
        </mxCell>
        <mxCell id="ZLJRaEIaYoe57LLzMuyD-128" style="edgeStyle=orthogonalEdgeStyle;rounded=0;orthogonalLoop=1;jettySize=auto;html=1;" edge="1" parent="1" source="ZLJRaEIaYoe57LLzMuyD-124" target="ZLJRaEIaYoe57LLzMuyD-125">
          <mxGeometry relative="1" as="geometry" />
        </mxCell>
        <mxCell id="ZLJRaEIaYoe57LLzMuyD-124" value="Stop timer" style="rounded=0;whiteSpace=wrap;html=1;" vertex="1" parent="1">
          <mxGeometry x="-410" y="620" width="120" height="60" as="geometry" />
        </mxCell>
        <mxCell id="ZLJRaEIaYoe57LLzMuyD-129" style="edgeStyle=orthogonalEdgeStyle;rounded=0;orthogonalLoop=1;jettySize=auto;html=1;" edge="1" parent="1" source="ZLJRaEIaYoe57LLzMuyD-125" target="ZLJRaEIaYoe57LLzMuyD-126">
          <mxGeometry relative="1" as="geometry" />
        </mxCell>
        <mxCell id="ZLJRaEIaYoe57LLzMuyD-125" value="Display current score on LED&#39;s" style="rounded=0;whiteSpace=wrap;html=1;" vertex="1" parent="1">
          <mxGeometry x="-410" y="710" width="120" height="60" as="geometry" />
        </mxCell>
        <mxCell id="ZLJRaEIaYoe57LLzMuyD-131" style="edgeStyle=orthogonalEdgeStyle;rounded=0;orthogonalLoop=1;jettySize=auto;html=1;" edge="1" parent="1" source="ZLJRaEIaYoe57LLzMuyD-126" target="ZLJRaEIaYoe57LLzMuyD-130">
          <mxGeometry relative="1" as="geometry" />
        </mxCell>
        <mxCell id="ZLJRaEIaYoe57LLzMuyD-126" value="Reset score" style="rounded=0;whiteSpace=wrap;html=1;" vertex="1" parent="1">
          <mxGeometry x="-410" y="790" width="120" height="60" as="geometry" />
        </mxCell>
        <mxCell id="ZLJRaEIaYoe57LLzMuyD-130" value="return" style="ellipse;whiteSpace=wrap;html=1;" vertex="1" parent="1">
          <mxGeometry x="-410" y="870" width="120" height="80" as="geometry" />
        </mxCell>
        <mxCell id="ZLJRaEIaYoe57LLzMuyD-132" value="Jorge" style="text;html=1;align=center;verticalAlign=middle;resizable=0;points=[];autosize=1;strokeColor=none;fillColor=none;" vertex="1" parent="1">
          <mxGeometry x="-795" y="-40" width="50" height="30" as="geometry" />
        </mxCell>
        <mxCell id="ZLJRaEIaYoe57LLzMuyD-133" value="Jorge" style="text;html=1;align=center;verticalAlign=middle;resizable=0;points=[];autosize=1;strokeColor=none;fillColor=none;" vertex="1" parent="1">
          <mxGeometry x="-625" y="-40" width="50" height="30" as="geometry" />
        </mxCell>
        <mxCell id="ZLJRaEIaYoe57LLzMuyD-134" value="Viktor" style="text;html=1;align=center;verticalAlign=middle;resizable=0;points=[];autosize=1;strokeColor=none;fillColor=none;" vertex="1" parent="1">
          <mxGeometry x="-540" y="555" width="50" height="30" as="geometry" />
        </mxCell>
        <mxCell id="ZLJRaEIaYoe57LLzMuyD-135" value="Jorge" style="text;html=1;align=center;verticalAlign=middle;resizable=0;points=[];autosize=1;strokeColor=none;fillColor=none;" vertex="1" parent="1">
          <mxGeometry x="-375" y="490" width="50" height="30" as="geometry" />
        </mxCell>
        <mxCell id="ZLJRaEIaYoe57LLzMuyD-136" value="Jorge" style="text;html=1;align=center;verticalAlign=middle;resizable=0;points=[];autosize=1;strokeColor=none;fillColor=none;" vertex="1" parent="1">
          <mxGeometry x="-375" y="-40" width="50" height="30" as="geometry" />
        </mxCell>
        <mxCell id="ZLJRaEIaYoe57LLzMuyD-137" value="Jorge" style="text;html=1;align=center;verticalAlign=middle;resizable=0;points=[];autosize=1;strokeColor=none;fillColor=none;" vertex="1" parent="1">
          <mxGeometry x="255" y="430" width="50" height="30" as="geometry" />
        </mxCell>
        <mxCell id="ZLJRaEIaYoe57LLzMuyD-138" value="Viktor" style="text;html=1;align=center;verticalAlign=middle;resizable=0;points=[];autosize=1;strokeColor=none;fillColor=none;" vertex="1" parent="1">
          <mxGeometry x="-85" y="500" width="50" height="30" as="geometry" />
        </mxCell>
        <mxCell id="ZLJRaEIaYoe57LLzMuyD-139" value="Viktor" style="text;html=1;align=center;verticalAlign=middle;resizable=0;points=[];autosize=1;strokeColor=none;fillColor=none;" vertex="1" parent="1">
          <mxGeometry x="-840" y="270" width="50" height="30" as="geometry" />
        </mxCell>
        <mxCell id="ZLJRaEIaYoe57LLzMuyD-140" value="Viktor" style="text;html=1;align=center;verticalAlign=middle;resizable=0;points=[];autosize=1;strokeColor=none;fillColor=none;" vertex="1" parent="1">
          <mxGeometry x="-455" y="725" width="50" height="30" as="geometry" />
        </mxCell>
      </root>
    </mxGraphModel>
  </diagram>
</mxfile>
